<?xml version="1.0" encoding="utf-8"?>
<!-- Generator: Adobe Illustrator 24.2.3, SVG Export Plug-In . SVG Version: 6.00 Build 0)  -->
<svg version="1.1" id="Layer_1" xmlns="http://www.w3.org/2000/svg" xmlns:xlink="http://www.w3.org/1999/xlink" x="0px" y="0px"
	 viewBox="0 0 837 462" style="enable-background:new 0 0 837 462;" xml:space="preserve">
<style type="text/css">
	.st0{fill:#435566;}
</style>
<g transform="translate(0.000000,462.000000) scale(0.100000,-0.100000)">
	<path class="st0" d="M2348,3529l-34-34v-751c0-636,2-751,14-751c46,0,279-124,301-160c3-4-8-33-24-63c-24-47-28-62-21-92
		c5-20,16-46,27-57c25-28,906-616,962-642c40-18,64-21,186-21c128,0,145,3,203,27l64,26l69-29c221-94,462-94,649,1
		c48,24,727,463,975,630c133,89,291,174,505,272c149,67,223,107,243,128l27,30v726c0,617-2,729-15,753c-17,34-33,41-86,41
		c-49,0-118-34-304-150c-77-48-163-99-191-113l-51-26l-149,48c-82,27-228,76-324,110c-208,72-321,94-490,95c-174,1-292-33-400-115
		c-69-54-66-53-118-16c-122,89-256,131-417,132c-153,0-272-25-535-111c-124-40-276-89-339-108l-114-35l-60,30c-32,17-128,73-213,124
		c-196,121-225,135-270,135C2390,3563,2374,3555,2348,3529z M4099,3281c72-23,145-64,145-81c0-7-111-122-246-257s-252-257-260-273
		c-8-15-15-55-15-90c0-34-1-160-2-279c-2-205-1-218,19-245c42-58,67-63,312-63h222v55v55h-209c-177,0-212,2-225,16
		c-13,12-16,41-16,150c0,74,3,134,6,134s17-14,32-32c15-17,53-51,84-74c45-33,72-45,127-54c60-11,226-10,270,1c11,3,17-10,23-49
		c13-88,53-143,133-185c34-18,61-22,178-25c159-5,203,6,269,66c51,46,68,81,82,168l11,71l53-59l52-59v-89v-90h54c52,0,55,1,58,27
		c3,25,14,15,136-117l133-145l-27-22c-15-12-119-82-231-155s-281-184-376-246c-234-154-248-162-329-183c-95-25-198-24-282,1
		c-36,12-66,23-66,25c0,3,14,28,32,56c41,67,77,157,78,192c0,15-6,40-14,55c-9,17-130,109-317,241c-416,294-379,262-379,327v54h-77
		c-73,0-80,2-138,40c-66,43-154,66-206,55l-29-7v140c0,115,3,143,16,156c13,14,48,16,225,16h209v55v55h-223c-253,0-274-5-314-76
		c-21-36-23-52-23-207v-167l-56-25c-31-14-60-25-65-25s-9,108-9,240c0,231-1,240-21,250c-13,7-81,10-195,8l-174-3v323v322l42-21
		c22-11,89-49,147-84c148-87,185-105,222-105c29,0,302,77,412,116c163,58,451,136,542,147C3950,3312,4036,3301,4099,3281z
		 M5054,3288c47-8,239-67,426-130c188-63,358-115,377-115c38,0,118,39,298,146c59,35,110,64,113,64s6-144,6-320v-320h-176
		c-102,0-183-4-195-10c-18-10-19-24-19-299c0-247,2-290,15-301c14-11,5-19-62-55c-43-23-87-47-99-55c-19-12-25-9-65,35
		c-24,26-45,51-47,56c-2,4,33,9,78,11l81,3l-112,95l-111,95l43,12c55,16,100,48,129,91c19,27,25,50,28,121c5,104-11,151-60,181
		c-31,19-50,20-279,20c-274,0-274,0-281-69l-3-34l-118,130c-110,122-161,163-202,163c-24,0-73-27-140-79c-33-25-96-71-141-101
		c-44-30-104-74-132-97c-99-80-220-107-296-67c-69,36-58,44,58,44h106v55v55h-142h-143l299,299c309,309,342,336,455,372
		C4813,3306,4940,3308,5054,3288z M4862,2577c52-21,90-60,118-119c20-42,24-66,24-151c0-153-30-219-124-270c-49-27-57-29-181-29
		c-122,0-134,2-186,28c-60,29-102,78-119,138c-16,54-12,220,5,270c19,54,67,105,120,130C4573,2599,4805,2601,4862,2577z M2899,2298
		v-280l-27-3l-27-3l-3,78l-3,78l-222,3l-222,2l-3-77c-3-76-4-78-28-78h-25l-3,163c-1,91,2,180,8,202c19,71,69,131,139,168l64,32
		l176-2l176-3V2298z M3592,2556l-3-28l-204-3c-173-2-208-5-223-19c-16-14-18-35-18-202c0-102,4-191,8-198c17-26,69-33,253-33h190
		l-3-27l-3-28h-210c-185,0-214,2-238,18c-58,38-62,54-62,257c0,294-4,290,303,290h213L3592,2556z M4252,2556l-3-28l-204-3
		c-173-2-208-5-223-19c-16-14-18-35-18-202c0-102,4-191,8-198c17-26,69-33,253-33h190l-3-27l-3-28l-175-3c-224-4-255,1-297,43
		l-33,33v201c0,300-10,290,298,291h213L4252,2556z M5705,2554c28-28,29-34,29-116c0-105-16-146-73-183c-29-19-56-27-103-30
		c-35-3-64-7-63-11c0-3,50-49,112-101l111-95l-42-3c-39-3-46,1-163,102c-103,89-128,106-156,106c-30,0-33,3-33,30v30h134
		c122,0,136,2,167,23c51,34,74,126,49,191l-10,26h-215h-215l-2-252l-3-253h-30h-30l-3,263c-1,170,1,270,8,282c10,19,22,20,256,20
		h246L5705,2554z M6339,2564c45-21,89-61,113-106c13-23,17-57,17-155c0-118-2-128-27-171c-33-56-92-96-160-109c-75-15-351-13-366,2
		c-9,9-12,85-12,278c0,147,3,270,7,273c3,4,92,7,197,7C6272,2583,6305,2580,6339,2564z M5649,2431c0-60-3-70-28-95
		c-27-27-30-28-160-31l-133-4l-37,41c-33,37-37,47-37,94c0,30,3,57,7,61c4,3,93,5,197,4l191-3V2431z M2814,2078c0-46-4-67-14-71
		s-181,101-215,132c-2,2,48,4,112,4h117V2078z M3657,1687c221-158,404-288,406-290c24-21-90-155-169-198c-62-34-146-43-207-24
		c-48,15-832,537-833,554c0,7,38,48,85,92c105,100,197,148,288,151C3250,1973,3346,1909,3657,1687z"/>
	<path class="st0" d="M4539,2519c-41-18-83-69-91-110c-3-19-4-79-2-134c3-111,14-136,78-179c30-21,44-23,170-23s140,2,170,23
		c65,44,75,67,78,190c3,101,1,116-20,156c-40,78-59,86-216,88C4607,2532,4561,2529,4539,2519z M4853,2484c57-40,66-64,66-179
		c0-126-15-160-80-192c-33-16-62-20-145-20c-118,0-173,18-202,67c-14,24-23,84-19,129c1,11,226,183,275,211
		C4774,2514,4821,2507,4853,2484z"/>
	<path class="st0" d="M2503,2495c-72-37-109-105-109-198v-64h225h225v145v145h-144C2562,2523,2554,2522,2503,2495z M2814,2378v-125
		h-140h-141l3,117c4,139-7,130,166,132l112,1V2378z"/>
	<path class="st0" d="M5964,2299v-226h138c190,1,234,13,286,84c18,24,21,42,21,146c0,129-7,148-69,194c-25,19-44,21-202,24l-174,3
		V2299z M6272,2325l2-173l-47-22c-35-16-73-22-140-25l-93-4v201v202l138-3l137-3L6272,2325z"/>
</g>
</svg>
